<svg width="31" height="31" viewBox="0 0 31 31" fill="none" xmlns="http://www.w3.org/2000/svg">
  <g clip-path="url(#clip0_103_92)">
    <path fill-rule="evenodd" clip-rule="evenodd"
      d="M21.462 21.652C21.533 21.458 21.574 21.235 21.574 21.001C21.574 21.0007 21.574 21.0003 21.574 21H0.030169C0.01088 21.1733 0.000976562 21.3495 0.000976562 21.528V21.534C0.00297642 21.778 0.0199766 22.015 0.0509768 22.249L0.0479765 22.22C0.0649767 22.328 0.155977 22.41 0.266976 22.412H21.043C21.168 22.41 21.273 22.326 21.308 22.212L21.309 22.21L21.462 21.652ZM12.1011 10H21.522C20.2423 8.93745 18.6029 8.30299 16.815 8.30299C15.0235 8.30299 13.3808 8.94006 12.1011 10ZM22.6286 21H31.1852C31.1546 21.4341 31.0809 21.8499 30.973 22.224V22.226C30.946 22.32 30.86 22.389 30.757 22.389H30.754H22.176H22.169C22.096 22.389 22.037 22.33 22.037 22.257C22.037 22.238 22.041 22.221 22.047 22.206L22.229 21.739L22.239 21.712C22.3452 21.4607 22.476 21.2224 22.6286 21Z"
      fill="#D9D9D9" />
    <path
      d="M6.625 12C4.62134 12 3 13.6213 3 15.625C3 17.6287 4.62134 19.25 6.625 19.25C8.62866 19.25 10.25 17.6287 10.25 15.625C10.25 13.6213 8.62866 12 6.625 12ZM15.6875 12C13.6838 12 12.0625 13.6213 12.0625 15.625C12.0625 17.6287 13.6838 19.25 15.6875 19.25C17.6912 19.25 19.3125 17.6287 19.3125 15.625C19.3125 13.6213 17.6912 12 15.6875 12ZM24.75 12C22.7463 12 21.125 13.6213 21.125 15.625C21.125 17.6287 22.7463 19.25 24.75 19.25C26.7537 19.25 28.375 17.6287 28.375 15.625C28.375 13.6213 26.7537 12 24.75 12Z"
      fill="white" />
  </g>
  <defs>
    <clipPath id="clip0_103_92">
      <rect width="31" height="31" fill="white" />
    </clipPath>
  </defs>
</svg>
