<svg width="31" height="31" viewBox="0 0 31 31" fill="none" xmlns="http://www.w3.org/2000/svg">
  <g clip-path="url(#clip0_103_32)">
    <path fill-rule="evenodd" clip-rule="evenodd"
      d="M14.6968 19.1968L17.912 22.412H0.266977C0.155977 22.41 0.0649766 22.328 0.0479766 22.22L0.0509766 22.249C0.0199766 22.015 0.00297656 21.778 0.000976562 21.534V21.528C0.000976562 18.9673 2.03949 16.8815 4.59008 16.806C4.5259 16.5413 4.49198 16.2644 4.49198 15.98C4.49198 15.862 4.49798 15.745 4.50798 15.644L4.50898 15.63C4.68398 13.959 6.09698 12.656 7.81498 12.656C7.93673 12.656 8.05697 12.6626 8.17532 12.6753L14.055 18.555L8.68698 18.624H8.68598C8.56498 18.634 8.46398 18.714 8.42198 18.826V18.824C8.41598 18.846 8.41198 18.87 8.41198 18.895C8.41198 18.944 8.42598 18.99 8.44898 19.028C8.48598 19.082 8.54898 19.118 8.61998 19.118H8.62198L14.6968 19.1968ZM25.389 22.389L23.2702 20.2702C23.8873 19.7182 24.6766 19.3513 25.554 19.257L28.05 19.111H28.051C28.172 19.101 28.273 19.021 28.315 18.909V18.911C28.322 18.889 28.325 18.865 28.325 18.841C28.325 18.792 28.311 18.746 28.288 18.708V18.707C28.251 18.653 28.188 18.617 28.117 18.617H28.115L25.715 18.471H25.709C25.1515 18.471 24.6567 18.2084 24.3356 17.7974C24.1361 17.4911 24.02 17.1264 24.02 16.734C24.02 16.5 24.061 16.277 24.132 16.083L24.571 14.555V14.554C24.594 14.484 24.658 14.432 24.735 14.427C24.836 14.419 24.945 14.419 25.046 14.419L25.047 14.415H25.052C28.447 14.415 31.199 17.166 31.201 20.56C31.2 21.152 31.117 21.725 30.973 22.224V22.226C30.946 22.32 30.86 22.389 30.757 22.389H30.754H25.389ZM24.3356 17.7974L24.338 17.801L24.333 17.794L24.3356 17.7974ZM21.1811 18.1811L12.6125 9.61246C13.8058 8.78672 15.2539 8.30299 16.815 8.30299C20.327 8.30299 23.266 10.751 24.031 14.083V14.081C24.038 14.108 24.041 14.136 24.041 14.165C24.041 14.215 24.031 14.262 24.014 14.303L23.359 15.99L23.349 16.017C22.9384 16.9891 22.1603 17.7683 21.1811 18.1811Z"
      fill="white" />
    <rect x="3" y="4.12132" width="3" height="36.3327" transform="rotate(-45 3 4.12132)" fill="white" />
  </g>
  <defs>
    <clipPath id="clip0_103_32">
      <rect width="31" height="31" fill="white" />
    </clipPath>
  </defs>
</svg>
