<svg width="31" height="31" viewBox="0 0 31 31" fill="none" xmlns="http://www.w3.org/2000/svg">
  <g clip-path="url(#clip0_103_16)">
    <path
      d="M21.462 21.652C21.533 21.458 21.574 21.235 21.574 21.001C21.574 20.607 21.457 20.241 21.256 19.934L21.261 19.941C20.94 19.528 20.444 19.264 19.885 19.264C19.883 19.264 19.881 19.264 19.879 19.264L8.62198 19.118C8.62098 19.118 8.62098 19.118 8.61998 19.118C8.54898 19.118 8.48598 19.082 8.44898 19.028C8.42598 18.99 8.41198 18.944 8.41198 18.895C8.41198 18.87 8.41598 18.846 8.42198 18.824V18.826C8.46398 18.714 8.56498 18.634 8.68598 18.624H8.68698L20.04 18.478C21.545 18.31 22.789 17.343 23.349 16.017L23.359 15.99L24.014 14.303C24.031 14.262 24.041 14.215 24.041 14.165C24.041 14.136 24.038 14.108 24.031 14.081V14.083C23.266 10.751 20.327 8.30299 16.815 8.30299C13.581 8.30299 10.832 10.379 9.82798 13.271L9.81198 13.323C9.26298 12.907 8.56798 12.656 7.81498 12.656C6.09698 12.656 4.68398 13.959 4.50898 15.63L4.50798 15.644C4.49798 15.745 4.49198 15.862 4.49198 15.98C4.49198 16.273 4.52798 16.558 4.59598 16.83L4.59098 16.806C2.03998 16.881 0.000976562 18.967 0.000976562 21.528V21.534C0.00297656 21.778 0.0199766 22.015 0.0509766 22.249L0.0479766 22.22C0.0649766 22.328 0.155977 22.41 0.266977 22.412H21.043C21.168 22.41 21.273 22.326 21.308 22.212L21.309 22.21L21.462 21.652Z"
      fill="white" />
    <path
      d="M25.046 14.419C24.945 14.419 24.836 14.419 24.735 14.427C24.658 14.432 24.594 14.484 24.571 14.554V14.555L24.132 16.083C24.061 16.277 24.02 16.5 24.02 16.734C24.02 17.128 24.137 17.494 24.338 17.801L24.333 17.794C24.654 18.207 25.15 18.471 25.709 18.471H25.715L28.115 18.617H28.117C28.188 18.617 28.251 18.653 28.288 18.707V18.708C28.311 18.746 28.325 18.792 28.325 18.841C28.325 18.865 28.322 18.889 28.315 18.911V18.909C28.273 19.021 28.172 19.101 28.051 19.111H28.05L25.554 19.257C24.047 19.419 22.8 20.385 22.239 21.712L22.229 21.739L22.047 22.206C22.041 22.221 22.037 22.238 22.037 22.257C22.037 22.33 22.096 22.389 22.169 22.389H22.176H30.754H30.757C30.86 22.389 30.946 22.32 30.973 22.226V22.224C31.117 21.725 31.2 21.152 31.201 20.56C31.199 17.166 28.447 14.415 25.052 14.415C25.05 14.415 25.049 14.415 25.047 14.415L25.046 14.419Z"
      fill="white" />
  </g>
  <defs>
    <clipPath id="clip0_103_16">
      <rect width="31" height="31" fill="white" />
    </clipPath>
  </defs>
</svg>
